<svg xmlns="http://www.w3.org/2000/svg" xmlns:xlink="http://www.w3.org/1999/xlink" viewBox="0 0 503 493.48"><title>laptop_triangle</title>

<style>
#row1_screen, #row4_screen {
 animation: fade-in-left 2.2s cubic-bezier(0.390, 0.575, 0.565, 1.000) infinite both;
  }

@keyframes fade-in-left {
  0% {
    transform: translateX(-50px);
    opacity: 0;
  }
  100% {
    transform: translateX(0);
    opacity: 1;
  }
}

#row2_screen, #row2-lasttwo {
animation: fade-in-right 2.2s cubic-bezier(0.390, 0.575, 0.565, 1.000) infinite both;
}

@keyframes fade-in-right {
  0% {
    transform: translateX(50px);
    opacity: 0;
  }
  100% {
    transform: translateX(0);
    opacity: 1;
  }
}

#row7_screen {
animation: fade-in-bottom 2.2s cubic-bezier(0.390, 0.575, 0.565, 1.000) infinite both;
}

@keyframes fade-in-bottom {
  0% {
    transform: translateY(50px);
    opacity: 0;
  }
  100% {
    transform: translateY(0);
    opacity: 1;
  }
}


</style>


<g id="laptop_whole"><g id="laptop"><path d="M246.65,279.35l126.13,71.22c3.72,2.1,4.15,5.31,1,7.14L307.12,396c-3.19,1.83-8.83,1.61-12.54-.48l-52-29.39A1.56,1.56,0,0,0,243,366c.55-.32.47-.87-.17-1.23L223.75,354a2.45,2.45,0,0,0-2.17-.09.89.89,0,0,0-.28.26l-52.86-29.84c-3.71-2.1-4.15-5.31-1-7.14l66.64-38.31C237.29,277,242.93,277.26,246.65,279.35Z" transform="translate(-17.33 -21.65)" style="fill:#84a9d8"/><path d="M246.65,277,372.78,348.2c3.72,2.1,4.15,5.32,1,7.14l-66.63,38.32c-3.19,1.83-8.83,1.61-12.54-.49l-52-29.38a1.57,1.57,0,0,0,.46-.17c.55-.31.47-.87-.17-1.23l-19.07-10.77a2.45,2.45,0,0,0-2.17-.08.77.77,0,0,0-.28.25L168.44,322c-3.71-2.1-4.15-5.31-1-7.14l66.64-38.31C237.29,274.67,242.93,274.89,246.65,277Z" transform="translate(-17.33 -21.65)" style="fill:#84a9d8"/><path d="M223.75,351.62l19.07,10.77c.64.36.72.92.17,1.23a1.57,1.57,0,0,1-.46.17l-21.23-12a.77.77,0,0,1,.28-.25A2.45,2.45,0,0,1,223.75,351.62Z" transform="translate(-17.33 -21.65)" style="fill:#9aa5ad"/><path d="M208.34,307.23l112,63.24a3.35,3.35,0,0,0,3,.11l38.06-21.88c.76-.44.65-1.2-.23-1.69l-112-63.24a3.39,3.39,0,0,0-3-.11l-38.06,21.88C207.36,306,207.46,306.74,208.34,307.23Z" transform="translate(-17.33 -21.65)" style="fill:#bdc4ca"/><path d="M348.16,346.27l5.6,3.16a1.3,1.3,0,0,0,1.15,0l2.39-1.37c.29-.17.25-.46-.09-.66l-5.6-3.16a1.33,1.33,0,0,0-1.15,0l-2.39,1.38C347.77,345.78,347.81,346.07,348.16,346.27Z" transform="translate(-17.33 -21.65)" style="fill:#152d41"/><path d="M340.25,341.8l5.61,3.17a1.3,1.3,0,0,0,1.15,0l2.39-1.37c.29-.17.25-.47-.09-.66l-5.6-3.16a1.27,1.27,0,0,0-1.15-.05l-2.4,1.38C339.87,341.32,339.91,341.61,340.25,341.8Z" transform="translate(-17.33 -21.65)" style="fill:#152d41"/><path d="M332.35,337.34l5.6,3.16a1.27,1.27,0,0,0,1.15.05l2.4-1.38c.29-.16.25-.46-.09-.65l-5.61-3.17a1.3,1.3,0,0,0-1.15,0l-2.39,1.38C332,336.85,332,337.15,332.35,337.34Z" transform="translate(-17.33 -21.65)" style="fill:#152d41"/><path d="M324.45,332.88l5.6,3.16a1.33,1.33,0,0,0,1.15,0l2.39-1.38c.29-.17.25-.46-.09-.65l-5.6-3.17a1.3,1.3,0,0,0-1.15,0l-2.39,1.37C324.06,332.39,324.1,332.69,324.45,332.88Z" transform="translate(-17.33 -21.65)" style="fill:#152d41"/><path d="M316.54,328.42l5.61,3.16a1.3,1.3,0,0,0,1.15,0l2.39-1.37c.29-.17.25-.46-.09-.66l-5.6-3.16a1.33,1.33,0,0,0-1.15-.05l-2.4,1.38C316.16,327.93,316.2,328.22,316.54,328.42Z" transform="translate(-17.33 -21.65)" style="fill:#152d41"/><path d="M308.64,324l5.6,3.17a1.3,1.3,0,0,0,1.15,0l2.4-1.37c.29-.17.25-.47-.09-.66L312.09,322a1.27,1.27,0,0,0-1.15-.05l-2.39,1.38C308.26,323.47,308.3,323.76,308.64,324Z" transform="translate(-17.33 -21.65)" style="fill:#152d41"/><path d="M300.74,319.49l5.6,3.16a1.27,1.27,0,0,0,1.15.05l2.39-1.38c.29-.16.25-.46-.09-.65l-5.6-3.17a1.3,1.3,0,0,0-1.15,0l-2.39,1.38C300.35,319,300.39,319.3,300.74,319.49Z" transform="translate(-17.33 -21.65)" style="fill:#152d41"/><path d="M292.83,315l5.61,3.16a1.33,1.33,0,0,0,1.15.05l2.39-1.38c.29-.17.25-.46-.09-.65l-5.6-3.17a1.3,1.3,0,0,0-1.15,0l-2.4,1.37C292.45,314.54,292.49,314.84,292.83,315Z" transform="translate(-17.33 -21.65)" style="fill:#152d41"/><path d="M284.93,310.57l5.6,3.16a1.3,1.3,0,0,0,1.15,0l2.39-1.37c.3-.17.26-.46-.08-.66l-5.61-3.16a1.3,1.3,0,0,0-1.15,0l-2.39,1.37C284.55,310.08,284.59,310.37,284.93,310.57Z" transform="translate(-17.33 -21.65)" style="fill:#152d41"/><path d="M277,306.1l5.6,3.17a1.3,1.3,0,0,0,1.15,0l2.39-1.37c.29-.17.25-.47-.09-.66l-5.6-3.16a1.33,1.33,0,0,0-1.15-.05l-2.39,1.38C276.64,305.62,276.68,305.91,277,306.1Z" transform="translate(-17.33 -21.65)" style="fill:#152d41"/><path d="M269.12,301.64l5.61,3.17a1.3,1.3,0,0,0,1.15,0l2.39-1.38c.29-.16.25-.46-.09-.65l-5.6-3.16a1.27,1.27,0,0,0-1.15-.05L269,301C268.74,301.15,268.78,301.45,269.12,301.64Z" transform="translate(-17.33 -21.65)" style="fill:#152d41"/><path d="M261.22,297.18l5.6,3.16a1.3,1.3,0,0,0,1.15.05l2.39-1.38c.3-.17.26-.46-.08-.65l-5.61-3.17a1.3,1.3,0,0,0-1.15,0l-2.39,1.37C260.84,296.69,260.88,297,261.22,297.18Z" transform="translate(-17.33 -21.65)" style="fill:#152d41"/><path d="M253.32,292.72l5.6,3.16a1.3,1.3,0,0,0,1.15,0l2.39-1.37c.29-.17.25-.46-.09-.66l-5.6-3.16a1.3,1.3,0,0,0-1.15,0l-2.39,1.37C252.93,292.23,253,292.52,253.32,292.72Z" transform="translate(-17.33 -21.65)" style="fill:#152d41"/><path d="M245.41,288.25l5.61,3.17a1.3,1.3,0,0,0,1.15,0l2.39-1.37c.29-.17.25-.47-.09-.66l-5.6-3.16a1.33,1.33,0,0,0-1.15,0l-2.4,1.38C245,287.77,245.07,288.06,245.41,288.25Z" transform="translate(-17.33 -21.65)" style="fill:#152d41"/><path d="M342,350.28l5.06,2.86a1.61,1.61,0,0,0,1.43.05l4.24-2.43c.36-.21.31-.58-.11-.82l-5.06-2.85a1.61,1.61,0,0,0-1.43-.06l-4.24,2.44C341.48,349.68,341.53,350,342,350.28Z" transform="translate(-17.33 -21.65)" style="fill:#152d41"/><path d="M334.34,346l5.05,2.85a1.61,1.61,0,0,0,1.43.06l4.24-2.44c.36-.2.31-.57-.11-.81l-5.06-2.85a1.61,1.61,0,0,0-1.43-.06l-4.24,2.44C333.86,345.37,333.91,345.74,334.34,346Z" transform="translate(-17.33 -21.65)" style="fill:#152d41"/><path d="M326.72,341.68l5,2.85a1.61,1.61,0,0,0,1.43.06l4.24-2.44c.36-.21.31-.57-.11-.81l-5.06-2.86a1.61,1.61,0,0,0-1.43-.05l-4.24,2.43C326.24,341.07,326.29,341.44,326.72,341.68Z" transform="translate(-17.33 -21.65)" style="fill:#152d41"/><path d="M319.1,337.38l5,2.85a1.64,1.64,0,0,0,1.43.06l4.24-2.44c.36-.21.31-.58-.11-.82l-5.06-2.85a1.61,1.61,0,0,0-1.43-.05L319,336.56C318.62,336.77,318.67,337.14,319.1,337.38Z" transform="translate(-17.33 -21.65)" style="fill:#152d41"/><path d="M311.48,333.07l5,2.86A1.61,1.61,0,0,0,318,336l4.24-2.43c.36-.21.31-.58-.11-.82L317,329.88a1.61,1.61,0,0,0-1.43-.06l-4.24,2.44C311,332.47,311.05,332.83,311.48,333.07Z" transform="translate(-17.33 -21.65)" style="fill:#152d41"/><path d="M303.86,328.77l5.05,2.86a1.61,1.61,0,0,0,1.43.05l4.24-2.43c.36-.21.31-.58-.11-.82l-5.06-2.85a1.61,1.61,0,0,0-1.43-.06L303.75,328C303.38,328.17,303.43,328.53,303.86,328.77Z" transform="translate(-17.33 -21.65)" style="fill:#152d41"/><path d="M296.24,324.47l5.05,2.85a1.61,1.61,0,0,0,1.43.06l4.24-2.44c.36-.21.31-.57-.11-.81l-5.06-2.86a1.61,1.61,0,0,0-1.43,0l-4.23,2.43C295.76,323.86,295.81,324.23,296.24,324.47Z" transform="translate(-17.33 -21.65)" style="fill:#152d41"/><path d="M288.62,320.17l5.05,2.85a1.61,1.61,0,0,0,1.43.06l4.24-2.44c.36-.21.31-.57-.11-.81L294.17,317a1.61,1.61,0,0,0-1.43-.05l-4.23,2.43C288.14,319.56,288.19,319.93,288.62,320.17Z" transform="translate(-17.33 -21.65)" style="fill:#152d41"/><path d="M281,315.87l5.05,2.85a1.61,1.61,0,0,0,1.43,0l4.24-2.43c.36-.21.31-.58-.11-.82l-5.06-2.85a1.64,1.64,0,0,0-1.43-.06l-4.23,2.44C280.52,315.26,280.57,315.63,281,315.87Z" transform="translate(-17.33 -21.65)" style="fill:#152d41"/><path d="M273.38,311.56l5.05,2.86a1.61,1.61,0,0,0,1.43.05L284.1,312c.36-.21.31-.58-.11-.82l-5.06-2.85a1.61,1.61,0,0,0-1.43-.06l-4.23,2.44C272.9,311,273,311.32,273.38,311.56Z" transform="translate(-17.33 -21.65)" style="fill:#152d41"/><path d="M265.76,307.26l5.05,2.85a1.61,1.61,0,0,0,1.43.06l4.24-2.44c.36-.2.31-.57-.11-.81l-5.06-2.85a1.61,1.61,0,0,0-1.43-.06l-4.23,2.44C265.28,306.65,265.33,307,265.76,307.26Z" transform="translate(-17.33 -21.65)" style="fill:#152d41"/><path d="M258.14,303l5.05,2.85a1.61,1.61,0,0,0,1.43.06l4.24-2.44c.36-.21.31-.57-.11-.81l-5.06-2.86a1.61,1.61,0,0,0-1.43-.05L258,302.14C257.66,302.35,257.71,302.72,258.14,303Z" transform="translate(-17.33 -21.65)" style="fill:#152d41"/><path d="M250.52,298.66l5,2.85a1.64,1.64,0,0,0,1.43.06l4.24-2.44c.36-.21.31-.58-.11-.82l-5.05-2.85a1.63,1.63,0,0,0-1.44,0l-4.23,2.43C250,298.05,250.09,298.42,250.52,298.66Z" transform="translate(-17.33 -21.65)" style="fill:#152d41"/><path d="M239.13,292.23l9,5.06a2.07,2.07,0,0,0,1.84.07l3.86-2.21c.47-.27.4-.75-.14-1.06l-9-5.06a2.09,2.09,0,0,0-1.85-.07L239,291.18C238.52,291.45,238.59,291.92,239.13,292.23Z" transform="translate(-17.33 -21.65)" style="fill:#152d41"/><path d="M323.83,347.28l5,2.84a1.61,1.61,0,0,0,1.43.06l4.23-2.44c.37-.21.32-.57-.11-.81l-5-2.85A1.61,1.61,0,0,0,328,344l-4.23,2.43C323.35,346.67,323.4,347,323.83,347.28Z" transform="translate(-17.33 -21.65)" style="fill:#152d41"/><path d="M331.5,351.61l8.69,4.91a2.09,2.09,0,0,0,1.82.07l3.88-2.23c.46-.27.4-.73-.14-1l-8.69-4.91a2.09,2.09,0,0,0-1.82-.07l-3.88,2.23C330.9,350.84,331,351.3,331.5,351.61Z" transform="translate(-17.33 -21.65)" style="fill:#152d41"/><path d="M316.23,343l5,2.84a1.61,1.61,0,0,0,1.43.06l4.23-2.44c.37-.21.32-.58-.11-.81l-5-2.85a1.64,1.64,0,0,0-1.43-.06l-4.23,2.44C315.75,342.38,315.8,342.75,316.23,343Z" transform="translate(-17.33 -21.65)" style="fill:#152d41"/><path d="M308.63,338.69l5,2.85a1.66,1.66,0,0,0,1.44.06l4.23-2.44c.37-.21.32-.58-.11-.82l-5-2.84a1.61,1.61,0,0,0-1.43-.06l-4.23,2.44C308.15,338.09,308.2,338.45,308.63,338.69Z" transform="translate(-17.33 -21.65)" style="fill:#152d41"/><path d="M301,334.4l5,2.85a1.61,1.61,0,0,0,1.43.05l4.24-2.43c.37-.21.32-.58-.11-.82l-5-2.84a1.61,1.61,0,0,0-1.43-.06l-4.24,2.44C300.55,333.8,300.6,334.16,301,334.4Z" transform="translate(-17.33 -21.65)" style="fill:#152d41"/><path d="M293.42,330.11l5,2.85a1.61,1.61,0,0,0,1.43.05l4.24-2.43c.37-.21.32-.58-.11-.82l-5-2.84a1.61,1.61,0,0,0-1.43-.06l-4.24,2.44C293,329.51,293,329.87,293.42,330.11Z" transform="translate(-17.33 -21.65)" style="fill:#152d41"/><path d="M285.82,325.82l5,2.85a1.64,1.64,0,0,0,1.43.05l4.24-2.44c.36-.2.31-.57-.11-.81l-5-2.85a1.64,1.64,0,0,0-1.43-.05L285.71,325C285.35,325.21,285.4,325.58,285.82,325.82Z" transform="translate(-17.33 -21.65)" style="fill:#152d41"/><path d="M278.22,321.53l5,2.84a1.61,1.61,0,0,0,1.43.06l4.24-2.44c.36-.21.31-.57-.11-.81l-5-2.85a1.61,1.61,0,0,0-1.43-.05l-4.24,2.43C277.75,320.92,277.8,321.29,278.22,321.53Z" transform="translate(-17.33 -21.65)" style="fill:#152d41"/><path d="M270.62,317.24l5,2.84a1.61,1.61,0,0,0,1.43.06l4.24-2.44c.36-.21.31-.57-.11-.81l-5-2.85a1.61,1.61,0,0,0-1.43-.05l-4.24,2.43C270.15,316.63,270.2,317,270.62,317.24Z" transform="translate(-17.33 -21.65)" style="fill:#152d41"/><path d="M263,313l5,2.84a1.61,1.61,0,0,0,1.43.06l4.24-2.44c.36-.21.31-.58-.11-.81l-5-2.85a1.64,1.64,0,0,0-1.43-.06l-4.24,2.44C262.55,312.34,262.6,312.71,263,313Z" transform="translate(-17.33 -21.65)" style="fill:#152d41"/><path d="M255.42,308.65l5,2.85a1.64,1.64,0,0,0,1.43.06l4.24-2.44c.36-.21.31-.58-.11-.82l-5-2.84a1.61,1.61,0,0,0-1.43-.06l-4.24,2.44C255,308.05,255,308.42,255.42,308.65Z" transform="translate(-17.33 -21.65)" style="fill:#152d41"/><path d="M247.82,304.36l5,2.85a1.61,1.61,0,0,0,1.43.05l4.24-2.43c.36-.21.31-.58-.11-.82l-5-2.84a1.61,1.61,0,0,0-1.43-.06l-4.24,2.44C247.35,303.76,247.4,304.12,247.82,304.36Z" transform="translate(-17.33 -21.65)" style="fill:#152d41"/><path d="M315.66,349.9l5,2.84a1.61,1.61,0,0,0,1.43.06l4.24-2.44c.36-.21.31-.57-.11-.81l-5-2.85a1.61,1.61,0,0,0-1.43-.05l-4.24,2.43C315.19,349.29,315.24,349.66,315.66,349.9Z" transform="translate(-17.33 -21.65)" style="fill:#152d41"/><path d="M323.39,354.26l10.42,5.88a2.16,2.16,0,0,0,1.9.08l3.8-2.19c.48-.28.42-.77-.14-1.08L329,351.07a2.14,2.14,0,0,0-1.89-.08l-3.81,2.19C322.77,353.46,322.83,353.94,323.39,354.26Z" transform="translate(-17.33 -21.65)" style="fill:#152d41"/><path d="M308.06,345.61l5,2.84a1.61,1.61,0,0,0,1.43.06l4.24-2.44c.36-.21.31-.58-.11-.81l-5-2.85a1.64,1.64,0,0,0-1.43-.06L308,344.79C307.59,345,307.64,345.37,308.06,345.61Z" transform="translate(-17.33 -21.65)" style="fill:#152d41"/><path d="M300.46,341.31l5,2.85a1.64,1.64,0,0,0,1.43.06l4.24-2.44c.36-.21.31-.58-.11-.82l-5-2.84a1.61,1.61,0,0,0-1.43-.06l-4.24,2.44C300,340.71,300,341.08,300.46,341.31Z" transform="translate(-17.33 -21.65)" style="fill:#152d41"/><path d="M292.86,337l5,2.85a1.61,1.61,0,0,0,1.43.05l4.24-2.43c.36-.21.31-.58-.11-.82l-5-2.84a1.61,1.61,0,0,0-1.43-.06l-4.24,2.44C292.39,336.42,292.44,336.78,292.86,337Z" transform="translate(-17.33 -21.65)" style="fill:#152d41"/><path d="M285.26,332.73l5,2.85a1.61,1.61,0,0,0,1.43.05L296,333.2c.36-.21.31-.58-.11-.82l-5-2.84a1.61,1.61,0,0,0-1.43-.06l-4.24,2.44C284.79,332.13,284.84,332.49,285.26,332.73Z" transform="translate(-17.33 -21.65)" style="fill:#152d41"/><path d="M277.66,328.44l5,2.85a1.64,1.64,0,0,0,1.43,0l4.24-2.44c.36-.2.31-.57-.11-.81l-5-2.84a1.61,1.61,0,0,0-1.43-.06l-4.24,2.44C277.19,327.83,277.24,328.2,277.66,328.44Z" transform="translate(-17.33 -21.65)" style="fill:#152d41"/><path d="M270.06,324.15l5,2.84a1.61,1.61,0,0,0,1.43.06l4.24-2.44c.36-.21.31-.57-.11-.81l-5-2.85a1.61,1.61,0,0,0-1.43-.05L270,323.33C269.59,323.54,269.64,323.91,270.06,324.15Z" transform="translate(-17.33 -21.65)" style="fill:#152d41"/><path d="M262.46,319.86l5,2.84a1.61,1.61,0,0,0,1.43.06l4.24-2.44c.36-.21.31-.57-.11-.81l-5-2.85a1.61,1.61,0,0,0-1.43-.05L262.35,319C262,319.25,262,319.62,262.46,319.86Z" transform="translate(-17.33 -21.65)" style="fill:#152d41"/><path d="M254.86,315.57l5,2.84a1.61,1.61,0,0,0,1.43.06l4.24-2.44c.36-.21.31-.57-.11-.81l-5-2.85a1.61,1.61,0,0,0-1.43-.05l-4.24,2.43C254.39,315,254.44,315.33,254.86,315.57Z" transform="translate(-17.33 -21.65)" style="fill:#152d41"/><path d="M247.26,311.27l5,2.85a1.64,1.64,0,0,0,1.43.06l4.24-2.44c.36-.21.31-.58-.11-.82l-5-2.84a1.64,1.64,0,0,0-1.43-.06l-4.24,2.44C246.79,310.67,246.84,311,247.26,311.27Z" transform="translate(-17.33 -21.65)" style="fill:#152d41"/><path d="M305.41,351.34l5,2.84a1.61,1.61,0,0,0,1.43.06l4.24-2.44c.36-.21.31-.57-.11-.81l-5-2.85a1.61,1.61,0,0,0-1.43-.05l-4.24,2.43C304.94,350.73,305,351.1,305.41,351.34Z" transform="translate(-17.33 -21.65)" style="fill:#152d41"/><path d="M313.55,355.93l13.73,7.75a2.5,2.5,0,0,0,2.24.09l3.49-2c.57-.33.49-.91-.17-1.28l-13.73-7.75a2.5,2.5,0,0,0-2.24-.09l-3.49,2C312.81,355,312.89,355.56,313.55,355.93Z" transform="translate(-17.33 -21.65)" style="fill:#152d41"/><path d="M297.81,347.05l5,2.84a1.61,1.61,0,0,0,1.43.06l4.24-2.44c.36-.21.31-.57-.11-.81l-5-2.85a1.61,1.61,0,0,0-1.43-.05l-4.24,2.43C297.34,346.44,297.39,346.81,297.81,347.05Z" transform="translate(-17.33 -21.65)" style="fill:#152d41"/><path d="M290.21,342.75l5,2.85a1.64,1.64,0,0,0,1.43.06l4.24-2.44c.36-.21.31-.58-.11-.82l-5-2.84a1.64,1.64,0,0,0-1.43-.06l-4.24,2.44C289.74,342.15,289.79,342.52,290.21,342.75Z" transform="translate(-17.33 -21.65)" style="fill:#152d41"/><path d="M315.64,365.27l5.09,2.87a1.74,1.74,0,0,0,1.55.06l5-2.84c.39-.23.34-.63-.12-.89L322,361.6a1.74,1.74,0,0,0-1.55-.06l-5,2.84C315.12,364.61,315.18,365,315.64,365.27Z" transform="translate(-17.33 -21.65)" style="fill:#152d41"/><path d="M307.83,360.86l5.09,2.87a1.74,1.74,0,0,0,1.55.06l4.95-2.84c.39-.23.34-.63-.12-.89l-5.09-2.87a1.74,1.74,0,0,0-1.55-.06l-5,2.84C307.31,360.2,307.37,360.6,307.83,360.86Z" transform="translate(-17.33 -21.65)" style="fill:#152d41"/><path d="M300,356.45l5.08,2.87a1.76,1.76,0,0,0,1.56.06l4.95-2.84c.39-.23.34-.63-.12-.89l-5.09-2.87a1.74,1.74,0,0,0-1.55-.06l-5,2.84C299.5,355.79,299.56,356.19,300,356.45Z" transform="translate(-17.33 -21.65)" style="fill:#152d41"/><path d="M290.82,351.25l6.57,3.71a2,2,0,0,0,1.73.07l4.78-2.75c.44-.25.38-.7-.13-1l-6.57-3.71a2,2,0,0,0-1.74-.06l-4.78,2.75C290.24,350.52,290.3,351,290.82,351.25Z" transform="translate(-17.33 -21.65)" style="fill:#152d41"/><path d="M253.19,330l34.74,19.61a2,2,0,0,0,1.74.07l4.77-2.75c.44-.25.38-.7-.13-1l-34.74-19.61a2,2,0,0,0-1.74-.07L253.06,329C252.62,329.27,252.68,329.72,253.19,330Z" transform="translate(-17.33 -21.65)" style="fill:#152d41"/><path d="M282.61,338.46l5,2.85a1.61,1.61,0,0,0,1.43.05l4.24-2.43c.36-.21.31-.58-.11-.82l-5-2.84a1.61,1.61,0,0,0-1.43-.06l-4.24,2.44C282.14,337.86,282.19,338.22,282.61,338.46Z" transform="translate(-17.33 -21.65)" style="fill:#152d41"/><path d="M275,334.17l5,2.85a1.61,1.61,0,0,0,1.43.05l4.24-2.43c.36-.21.31-.58-.11-.82l-5-2.84a1.61,1.61,0,0,0-1.43-.06l-4.24,2.44C274.54,333.57,274.59,333.93,275,334.17Z" transform="translate(-17.33 -21.65)" style="fill:#152d41"/><path d="M267.41,329.88l5,2.85a1.64,1.64,0,0,0,1.43,0l4.24-2.44c.36-.2.31-.57-.11-.81l-5-2.84a1.61,1.61,0,0,0-1.43-.06l-4.24,2.44C266.94,329.27,267,329.64,267.41,329.88Z" transform="translate(-17.33 -21.65)" style="fill:#152d41"/><path d="M259.81,325.59l5,2.84a1.61,1.61,0,0,0,1.43.06l4.24-2.44c.36-.21.31-.57-.11-.81l-5-2.85a1.61,1.61,0,0,0-1.43-.05l-4.24,2.43C259.34,325,259.38,325.35,259.81,325.59Z" transform="translate(-17.33 -21.65)" style="fill:#152d41"/><path d="M252.21,321.3l5,2.84a1.61,1.61,0,0,0,1.43.06l4.24-2.44c.36-.21.31-.57-.12-.81l-5-2.85a1.61,1.61,0,0,0-1.43-.05l-4.24,2.43C251.73,320.69,251.78,321.06,252.21,321.3Z" transform="translate(-17.33 -21.65)" style="fill:#152d41"/><path d="M243.56,324.57l6.38,3.6a1.92,1.92,0,0,0,1.71.07l4.8-2.76c.44-.25.38-.69-.13-1l-6.38-3.6a2,2,0,0,0-1.71-.06l-4.8,2.76C243,323.85,243.05,324.28,243.56,324.57Z" transform="translate(-17.33 -21.65)" style="fill:#152d41"/><path d="M244.61,317l5,2.84a1.61,1.61,0,0,0,1.43.06l4.23-2.44c.37-.21.32-.57-.11-.81l-5-2.85a1.63,1.63,0,0,0-1.44-.05l-4.23,2.43C244.13,316.4,244.18,316.77,244.61,317Z" transform="translate(-17.33 -21.65)" style="fill:#152d41"/><path d="M235.66,320.11l5.26,3a1.77,1.77,0,0,0,1.58.06l4.93-2.83c.4-.23.34-.63-.13-.9l-5.26-3a1.8,1.8,0,0,0-1.58-.06l-4.93,2.83C235.13,319.44,235.19,319.85,235.66,320.11Z" transform="translate(-17.33 -21.65)" style="fill:#152d41"/><path d="M220.46,311.53l5.26,3a1.8,1.8,0,0,0,1.58.06l4.93-2.83c.4-.23.34-.64-.13-.9l-5.26-3a1.77,1.77,0,0,0-1.58-.06l-4.93,2.83C219.93,310.86,220,311.26,220.46,311.53Z" transform="translate(-17.33 -21.65)" style="fill:#152d41"/><path d="M237,312.71l5,2.85a1.64,1.64,0,0,0,1.43.06l4.23-2.44c.37-.21.32-.58-.11-.82l-5-2.84a1.64,1.64,0,0,0-1.43-.06l-4.23,2.44C236.53,312.11,236.58,312.48,237,312.71Z" transform="translate(-17.33 -21.65)" style="fill:#152d41"/><path d="M220.32,303.29l13.75,7.77a2.53,2.53,0,0,0,2.24.08l3.49-2c.57-.33.49-.9-.17-1.28l-13.76-7.76a2.5,2.5,0,0,0-2.24-.09l-3.49,2C219.57,302.34,219.65,302.92,220.32,303.29Z" transform="translate(-17.33 -21.65)" style="fill:#152d41"/><path d="M239.66,307l5,2.85a1.61,1.61,0,0,0,1.43.05l4.24-2.43c.36-.21.31-.58-.11-.82l-5-2.84a1.61,1.61,0,0,0-1.43-.06l-4.24,2.44C239.19,306.38,239.24,306.74,239.66,307Z" transform="translate(-17.33 -21.65)" style="fill:#152d41"/><path d="M226.57,299.59l10.48,5.92a2.24,2.24,0,0,0,2,.08l3.73-2.15c.5-.29.44-.79-.15-1.12l-10.48-5.92a2.24,2.24,0,0,0-2-.08l-3.73,2.15C225.92,298.76,226,299.26,226.57,299.59Z" transform="translate(-17.33 -21.65)" style="fill:#152d41"/><path d="M240.22,300.07l5,2.85a1.61,1.61,0,0,0,1.43.05l4.24-2.43c.36-.21.31-.58-.11-.82l-5-2.84a1.61,1.61,0,0,0-1.43-.06l-4.24,2.44C239.75,299.47,239.8,299.83,240.22,300.07Z" transform="translate(-17.33 -21.65)" style="fill:#152d41"/><path d="M232.62,295.78l5,2.85a1.64,1.64,0,0,0,1.43.05l4.24-2.44c.36-.2.31-.57-.11-.81l-5-2.85a1.64,1.64,0,0,0-1.43-.05L232.51,295C232.15,295.17,232.2,295.54,232.62,295.78Z" transform="translate(-17.33 -21.65)" style="fill:#152d41"/><path d="M228.25,315.93l5.17,2.91a1.57,1.57,0,0,0,1.41.06l1.89-1.09c.36-.2.31-.56-.11-.8l-5.17-2.92a1.6,1.6,0,0,0-1.41,0l-1.89,1.08C227.78,315.33,227.83,315.69,228.25,315.93Z" transform="translate(-17.33 -21.65)" style="fill:#152d41"/><path d="M212.71,307.15l5.17,2.92a1.6,1.6,0,0,0,1.41.06l1.89-1.09c.36-.2.31-.57-.11-.8l-5.17-2.92a1.6,1.6,0,0,0-1.41-.06l-1.89,1.09C212.24,306.56,212.29,306.92,212.71,307.15Z" transform="translate(-17.33 -21.65)" style="fill:#152d41"/><path d="M216.22,344.82l38.49,21.74a3.91,3.91,0,0,0,3.44.13l22.71-13.06c.87-.5.75-1.38-.26-2l-38.5-21.73a3.89,3.89,0,0,0-3.43-.13L216,342.87C215.08,343.37,215.2,344.25,216.22,344.82Z" transform="translate(-17.33 -21.65)" style="fill:#9aa5ad"/><path d="M246.32,281.5l126.13,71.22c3.72,2.09,4.15,5.31,1,7.14l-66.64,38.31c-3.18,1.83-8.82,1.61-12.54-.49l-52-29.38a1.5,1.5,0,0,0,.45-.17c.55-.31.48-.87-.16-1.23l-19.08-10.77a2.43,2.43,0,0,0-2.16-.08.71.71,0,0,0-.28.26l-52.86-29.85c-3.71-2.09-4.15-5.31-1-7.14L233.78,281C237,279.18,242.6,279.4,246.32,281.5Z" transform="translate(-17.33 -21.65)" style="fill:#bed4f0"/><path d="M247.85,280.55,374,351.77c3.72,2.1,4.15,5.31,1,7.14l-66.64,38.31c-3.18,1.83-8.82,1.61-12.54-.49l-52-29.38a1.5,1.5,0,0,0,.45-.16c.55-.32.48-.87-.16-1.24l-19.08-10.76a2.43,2.43,0,0,0-2.16-.09.79.79,0,0,0-.28.26l-52.86-29.84c-3.71-2.1-4.15-5.31-1-7.14l66.64-38.32C238.49,278.23,244.13,278.45,247.85,280.55Z" transform="translate(-17.33 -21.65)" style="fill:#84a9d8"/><path d="M374,349.4,247.85,278.19a14.21,14.21,0,0,0-5.24-1.62,12.37,12.37,0,0,0-7.3,1.13L168.67,316c-3.18,1.83-2.74,5,1,7.14L222.5,353a.89.89,0,0,1,.28-.26,2.46,2.46,0,0,1,2.16.09L244,363.59c.64.36.71.91.16,1.23a1.27,1.27,0,0,1-.45.16l52,29.39a13.22,13.22,0,0,0,3.37,1.28c3.23.78,6.86.54,9.17-.79L375,356.54C378.13,354.71,377.7,351.5,374,349.4Z" transform="translate(-17.33 -21.65)" style="fill:#fff"/><path d="M224.94,352.82,244,363.59c.64.36.71.91.16,1.23a1.27,1.27,0,0,1-.45.16L222.5,353a.89.89,0,0,1,.28-.26A2.46,2.46,0,0,1,224.94,352.82Z" transform="translate(-17.33 -21.65)" style="fill:#84a9d8"/><path d="M360.62,347.35l-93.37-52.72-18.62-10.51a3.36,3.36,0,0,0-3-.12l-38.07,21.89c-.75.43-.64,1.19.23,1.69l91.95,51.91,20.05,11.32a3.33,3.33,0,0,0,3,.12L360.85,349C361.6,348.61,361.5,347.85,360.62,347.35Z" transform="translate(-17.33 -21.65)" style="fill:#fff"/><path d="M347.64,346.61l5.61,3.16a1.33,1.33,0,0,0,1.15.05l2.39-1.38c.29-.17.25-.46-.09-.65l-5.6-3.17a1.3,1.3,0,0,0-1.15,0l-2.4,1.37C347.26,346.12,347.3,346.42,347.64,346.61Z" transform="translate(-17.33 -21.65)" style="fill:#bed4f0"/><path d="M339.74,342.15l5.6,3.16a1.3,1.3,0,0,0,1.15,0l2.4-1.37c.29-.17.25-.46-.09-.66l-5.61-3.16a1.33,1.33,0,0,0-1.15-.05l-2.39,1.38C339.36,341.66,339.4,342,339.74,342.15Z" transform="translate(-17.33 -21.65)" style="fill:#bed4f0"/><path d="M331.84,337.68l5.6,3.17a1.3,1.3,0,0,0,1.15,0l2.39-1.37c.29-.17.25-.47-.09-.66l-5.6-3.16a1.27,1.27,0,0,0-1.15-.05L331.75,337C331.45,337.2,331.49,337.49,331.84,337.68Z" transform="translate(-17.33 -21.65)" style="fill:#bed4f0"/><path d="M323.93,333.22l5.61,3.16a1.27,1.27,0,0,0,1.15.05l2.39-1.38c.29-.16.25-.46-.09-.65l-5.6-3.17a1.3,1.3,0,0,0-1.15,0l-2.4,1.38C323.55,332.73,323.59,333,323.93,333.22Z" transform="translate(-17.33 -21.65)" style="fill:#bed4f0"/><path d="M316,328.76l5.6,3.16a1.33,1.33,0,0,0,1.15.05l2.4-1.38c.29-.17.25-.46-.09-.65l-5.61-3.17a1.3,1.3,0,0,0-1.15,0l-2.39,1.37C315.65,328.27,315.69,328.57,316,328.76Z" transform="translate(-17.33 -21.65)" style="fill:#bed4f0"/><path d="M308.13,324.3l5.6,3.16a1.3,1.3,0,0,0,1.15,0l2.39-1.37c.29-.17.25-.46-.09-.66l-5.6-3.16a1.3,1.3,0,0,0-1.15,0L308,323.64C307.74,323.81,307.78,324.1,308.13,324.3Z" transform="translate(-17.33 -21.65)" style="fill:#bed4f0"/><path d="M300.22,319.83l5.61,3.17a1.3,1.3,0,0,0,1.15,0l2.39-1.37c.29-.17.25-.47-.09-.66l-5.6-3.16a1.3,1.3,0,0,0-1.15-.05l-2.4,1.38C299.84,319.35,299.88,319.64,300.22,319.83Z" transform="translate(-17.33 -21.65)" style="fill:#bed4f0"/><path d="M292.32,315.37l5.6,3.16a1.27,1.27,0,0,0,1.15.05l2.4-1.38c.29-.16.25-.46-.09-.65l-5.61-3.16a1.27,1.27,0,0,0-1.15-.05l-2.39,1.38C291.94,314.88,292,315.18,292.32,315.37Z" transform="translate(-17.33 -21.65)" style="fill:#bed4f0"/><path d="M284.42,310.91l5.6,3.16a1.33,1.33,0,0,0,1.15.05l2.39-1.38c.29-.17.25-.46-.09-.65l-5.6-3.17a1.3,1.3,0,0,0-1.15,0l-2.39,1.37C284,310.42,284.07,310.72,284.42,310.91Z" transform="translate(-17.33 -21.65)" style="fill:#bed4f0"/><path d="M276.51,306.45l5.61,3.16a1.3,1.3,0,0,0,1.15,0l2.39-1.37c.29-.17.25-.46-.09-.66l-5.6-3.16a1.3,1.3,0,0,0-1.15,0l-2.4,1.37C276.13,306,276.17,306.25,276.51,306.45Z" transform="translate(-17.33 -21.65)" style="fill:#bed4f0"/><path d="M268.61,302l5.6,3.17a1.3,1.3,0,0,0,1.15,0l2.4-1.37c.29-.17.25-.47-.09-.66L272.06,300a1.33,1.33,0,0,0-1.15-.05l-2.39,1.38C268.23,301.5,268.27,301.79,268.61,302Z" transform="translate(-17.33 -21.65)" style="fill:#bed4f0"/><path d="M260.71,297.52l5.6,3.17a1.3,1.3,0,0,0,1.15,0l2.39-1.38c.29-.16.25-.46-.09-.65l-5.6-3.16a1.27,1.27,0,0,0-1.15-.05l-2.39,1.38C260.32,297,260.36,297.33,260.71,297.52Z" transform="translate(-17.33 -21.65)" style="fill:#bed4f0"/><path d="M252.8,293.06l5.61,3.16a1.27,1.27,0,0,0,1.15,0l2.39-1.38c.29-.17.25-.46-.09-.65l-5.6-3.17a1.3,1.3,0,0,0-1.15,0l-2.4,1.37C252.42,292.57,252.46,292.87,252.8,293.06Z" transform="translate(-17.33 -21.65)" style="fill:#bed4f0"/><path d="M244.9,288.6l5.6,3.16a1.33,1.33,0,0,0,1.15.05l2.4-1.38c.29-.17.25-.46-.09-.66l-5.61-3.16a1.3,1.3,0,0,0-1.15,0l-2.39,1.37C244.52,288.11,244.56,288.4,244.9,288.6Z" transform="translate(-17.33 -21.65)" style="fill:#bed4f0"/><path d="M341.44,350.63l5.06,2.85a1.64,1.64,0,0,0,1.43.06l4.23-2.44c.37-.21.32-.58-.11-.82L347,347.43a1.64,1.64,0,0,0-1.43-.06l-4.24,2.44C341,350,341,350.39,341.44,350.63Z" transform="translate(-17.33 -21.65)" style="fill:#bed4f0"/><path d="M333.82,346.32l5.06,2.86a1.61,1.61,0,0,0,1.43.05l4.23-2.43c.37-.21.32-.58-.11-.82l-5.05-2.85a1.61,1.61,0,0,0-1.43-.06l-4.24,2.44C333.35,345.72,333.4,346.08,333.82,346.32Z" transform="translate(-17.33 -21.65)" style="fill:#bed4f0"/><path d="M326.2,342l5.06,2.85a1.61,1.61,0,0,0,1.43.06l4.23-2.43c.37-.21.32-.58-.11-.82l-5.05-2.85a1.61,1.61,0,0,0-1.43-.06l-4.24,2.44C325.73,341.41,325.78,341.78,326.2,342Z" transform="translate(-17.33 -21.65)" style="fill:#bed4f0"/><path d="M318.58,337.72l5.06,2.85a1.61,1.61,0,0,0,1.43.06l4.23-2.44c.37-.21.32-.57-.11-.81l-5.05-2.86a1.61,1.61,0,0,0-1.43,0l-4.24,2.43C318.11,337.11,318.16,337.48,318.58,337.72Z" transform="translate(-17.33 -21.65)" style="fill:#bed4f0"/><path d="M311,333.42l5.06,2.85a1.61,1.61,0,0,0,1.43.06l4.23-2.44c.37-.21.32-.58-.11-.82l-5.05-2.85a1.61,1.61,0,0,0-1.43-.05l-4.24,2.43C310.49,332.81,310.54,333.18,311,333.42Z" transform="translate(-17.33 -21.65)" style="fill:#bed4f0"/><path d="M303.34,329.11,308.4,332a1.61,1.61,0,0,0,1.43,0l4.23-2.43c.37-.21.32-.58-.11-.82l-5.05-2.85a1.61,1.61,0,0,0-1.43-.06l-4.24,2.44C302.87,328.51,302.92,328.88,303.34,329.11Z" transform="translate(-17.33 -21.65)" style="fill:#bed4f0"/><path d="M295.72,324.81l5.06,2.86a1.61,1.61,0,0,0,1.43.05l4.24-2.43c.36-.21.31-.58-.12-.82l-5.05-2.85a1.61,1.61,0,0,0-1.43-.06L295.61,324C295.25,324.21,295.3,324.57,295.72,324.81Z" transform="translate(-17.33 -21.65)" style="fill:#bed4f0"/><path d="M288.1,320.51l5.06,2.85a1.61,1.61,0,0,0,1.43.06l4.24-2.44c.36-.21.31-.57-.12-.81l-5-2.86a1.64,1.64,0,0,0-1.43-.05L288,319.69C287.63,319.9,287.68,320.27,288.1,320.51Z" transform="translate(-17.33 -21.65)" style="fill:#bed4f0"/><path d="M280.48,316.21l5.06,2.85a1.61,1.61,0,0,0,1.43.06l4.24-2.44c.36-.21.31-.57-.12-.81L286,313a1.61,1.61,0,0,0-1.43-.05l-4.24,2.43C280,315.6,280.06,316,280.48,316.21Z" transform="translate(-17.33 -21.65)" style="fill:#bed4f0"/><path d="M272.86,311.91l5.06,2.85a1.61,1.61,0,0,0,1.43.05l4.24-2.43c.36-.21.31-.58-.11-.82l-5.06-2.85a1.64,1.64,0,0,0-1.43-.06l-4.24,2.44C272.39,311.3,272.44,311.67,272.86,311.91Z" transform="translate(-17.33 -21.65)" style="fill:#bed4f0"/><path d="M265.24,307.6l5.06,2.86a1.61,1.61,0,0,0,1.43.05l4.24-2.43c.36-.21.31-.58-.11-.82l-5.06-2.85a1.61,1.61,0,0,0-1.43-.06l-4.24,2.44C264.77,307,264.82,307.36,265.24,307.6Z" transform="translate(-17.33 -21.65)" style="fill:#bed4f0"/><path d="M257.62,303.3l5.06,2.85a1.61,1.61,0,0,0,1.43.06l4.24-2.44c.36-.2.31-.57-.11-.81l-5.06-2.85a1.61,1.61,0,0,0-1.43-.06l-4.24,2.44C257.15,302.69,257.2,303.06,257.62,303.3Z" transform="translate(-17.33 -21.65)" style="fill:#bed4f0"/><path d="M250,299l5.06,2.85a1.61,1.61,0,0,0,1.43.06l4.24-2.44c.36-.21.31-.57-.11-.81l-5.06-2.86a1.61,1.61,0,0,0-1.43-.05l-4.24,2.43C249.53,298.39,249.58,298.76,250,299Z" transform="translate(-17.33 -21.65)" style="fill:#bed4f0"/><path d="M238.62,292.57l9,5.06a2.06,2.06,0,0,0,1.84.07l3.86-2.21c.46-.27.4-.74-.15-1.05l-9-5.06a2.09,2.09,0,0,0-1.85-.08l-3.85,2.22C238,291.79,238.07,292.26,238.62,292.57Z" transform="translate(-17.33 -21.65)" style="fill:#bed4f0"/><path d="M323.31,347.62l5,2.84a1.61,1.61,0,0,0,1.43.06l4.24-2.44c.36-.2.31-.57-.11-.81l-5-2.85a1.64,1.64,0,0,0-1.43-.05l-4.24,2.44C322.84,347,322.89,347.38,323.31,347.62Z" transform="translate(-17.33 -21.65)" style="fill:#bed4f0"/><path d="M331,352l8.69,4.91a2,2,0,0,0,1.82.07l3.88-2.23c.46-.26.4-.73-.14-1l-8.7-4.91a2,2,0,0,0-1.82-.07l-3.88,2.22C330.38,351.18,330.45,351.65,331,352Z" transform="translate(-17.33 -21.65)" style="fill:#bed4f0"/><path d="M315.71,343.33l5,2.84a1.61,1.61,0,0,0,1.43.06l4.24-2.44c.36-.21.31-.57-.11-.81l-5-2.85a1.61,1.61,0,0,0-1.43-.05l-4.24,2.43C315.24,342.72,315.29,343.09,315.71,343.33Z" transform="translate(-17.33 -21.65)" style="fill:#bed4f0"/><path d="M308.11,339l5,2.84a1.61,1.61,0,0,0,1.43.06l4.24-2.44c.36-.21.31-.57-.11-.81l-5-2.85a1.61,1.61,0,0,0-1.43,0L308,338.22C307.64,338.43,307.69,338.8,308.11,339Z" transform="translate(-17.33 -21.65)" style="fill:#bed4f0"/><path d="M300.51,334.75l5,2.84a1.64,1.64,0,0,0,1.43.06l4.24-2.44c.36-.21.31-.58-.11-.81l-5-2.85a1.64,1.64,0,0,0-1.43-.06l-4.24,2.44C300,334.14,300.09,334.51,300.51,334.75Z" transform="translate(-17.33 -21.65)" style="fill:#bed4f0"/><path d="M292.91,330.45l5,2.85a1.61,1.61,0,0,0,1.43.05l4.24-2.43c.36-.21.31-.58-.11-.82l-5-2.84a1.61,1.61,0,0,0-1.43-.06l-4.24,2.44C292.44,329.85,292.49,330.21,292.91,330.45Z" transform="translate(-17.33 -21.65)" style="fill:#bed4f0"/><path d="M285.31,326.16l5,2.85a1.61,1.61,0,0,0,1.43.05l4.24-2.43c.36-.21.31-.58-.11-.82l-5-2.84a1.61,1.61,0,0,0-1.43-.06l-4.24,2.44C284.84,325.56,284.89,325.92,285.31,326.16Z" transform="translate(-17.33 -21.65)" style="fill:#bed4f0"/><path d="M277.71,321.87l5,2.85a1.61,1.61,0,0,0,1.43,0l4.24-2.43c.36-.21.31-.58-.11-.82l-5-2.84a1.61,1.61,0,0,0-1.43-.06l-4.24,2.44C277.24,321.27,277.29,321.63,277.71,321.87Z" transform="translate(-17.33 -21.65)" style="fill:#bed4f0"/><path d="M270.11,317.58l5,2.84a1.61,1.61,0,0,0,1.43.06l4.24-2.44c.36-.2.31-.57-.11-.81l-5-2.85a1.64,1.64,0,0,0-1.43-.05L270,316.77C269.64,317,269.69,317.34,270.11,317.58Z" transform="translate(-17.33 -21.65)" style="fill:#bed4f0"/><path d="M262.51,313.29l5,2.84a1.61,1.61,0,0,0,1.43.06l4.24-2.44c.36-.21.31-.57-.11-.81l-5-2.85a1.61,1.61,0,0,0-1.43,0l-4.24,2.43C262,312.68,262.09,313.05,262.51,313.29Z" transform="translate(-17.33 -21.65)" style="fill:#bed4f0"/><path d="M254.91,309l5,2.84a1.61,1.61,0,0,0,1.43.06l4.24-2.44c.36-.21.31-.57-.11-.81l-5-2.85a1.61,1.61,0,0,0-1.43-.05l-4.24,2.43C254.44,308.39,254.49,308.76,254.91,309Z" transform="translate(-17.33 -21.65)" style="fill:#bed4f0"/><path d="M247.31,304.71l5,2.84a1.61,1.61,0,0,0,1.43.06l4.24-2.44c.36-.21.31-.58-.11-.81l-5-2.85a1.64,1.64,0,0,0-1.43-.06l-4.24,2.44C246.84,304.1,246.89,304.47,247.31,304.71Z" transform="translate(-17.33 -21.65)" style="fill:#bed4f0"/><path d="M315.15,350.24l5,2.85a1.64,1.64,0,0,0,1.43.05l4.24-2.44c.36-.2.31-.57-.11-.81l-5-2.85a1.64,1.64,0,0,0-1.43-.05L315,349.43C314.68,349.63,314.73,350,315.15,350.24Z" transform="translate(-17.33 -21.65)" style="fill:#bed4f0"/><path d="M322.88,354.6l10.42,5.89a2.14,2.14,0,0,0,1.89.07l3.81-2.19c.48-.28.42-.76-.15-1.08l-10.41-5.88a2.13,2.13,0,0,0-1.9-.07l-3.81,2.19C322.25,353.8,322.32,354.29,322.88,354.6Z" transform="translate(-17.33 -21.65)" style="fill:#bed4f0"/><path d="M307.55,346l5,2.84a1.61,1.61,0,0,0,1.43.06l4.24-2.44c.36-.21.31-.57-.11-.81l-5-2.85a1.61,1.61,0,0,0-1.43-.05l-4.24,2.43C307.08,345.34,307.13,345.71,307.55,346Z" transform="translate(-17.33 -21.65)" style="fill:#bed4f0"/><path d="M300,341.66l5,2.84a1.61,1.61,0,0,0,1.43.06l4.24-2.44c.36-.21.31-.57-.11-.81l-5-2.85a1.61,1.61,0,0,0-1.43,0l-4.24,2.43C299.48,341.05,299.53,341.42,300,341.66Z" transform="translate(-17.33 -21.65)" style="fill:#bed4f0"/><path d="M292.35,337.37l5,2.84a1.61,1.61,0,0,0,1.43.06l4.24-2.44c.36-.21.31-.58-.11-.81l-5-2.85a1.64,1.64,0,0,0-1.43-.06l-4.24,2.44C291.88,336.76,291.93,337.13,292.35,337.37Z" transform="translate(-17.33 -21.65)" style="fill:#bed4f0"/><path d="M284.75,333.07l5,2.85a1.64,1.64,0,0,0,1.43.06l4.24-2.44c.36-.21.31-.58-.11-.82l-5-2.84a1.61,1.61,0,0,0-1.43-.06l-4.24,2.44C284.28,332.47,284.33,332.84,284.75,333.07Z" transform="translate(-17.33 -21.65)" style="fill:#bed4f0"/><path d="M277.15,328.78l5,2.85a1.61,1.61,0,0,0,1.43.05l4.24-2.43c.36-.21.31-.58-.11-.82l-5-2.84a1.61,1.61,0,0,0-1.43-.06L277,328C276.68,328.18,276.73,328.54,277.15,328.78Z" transform="translate(-17.33 -21.65)" style="fill:#bed4f0"/><path d="M269.55,324.49l5,2.85a1.61,1.61,0,0,0,1.43.05l4.24-2.43c.36-.21.31-.58-.12-.82l-5-2.84a1.61,1.61,0,0,0-1.43-.06l-4.24,2.44C269.07,323.89,269.12,324.25,269.55,324.49Z" transform="translate(-17.33 -21.65)" style="fill:#bed4f0"/><path d="M262,320.2l5,2.85a1.64,1.64,0,0,0,1.43.05l4.23-2.44c.37-.2.32-.57-.11-.81l-5-2.85a1.66,1.66,0,0,0-1.44-.05l-4.23,2.44C261.47,319.59,261.52,320,262,320.2Z" transform="translate(-17.33 -21.65)" style="fill:#bed4f0"/><path d="M254.35,315.91l5,2.84a1.61,1.61,0,0,0,1.43.06l4.23-2.44c.37-.21.32-.57-.11-.81l-5-2.85a1.61,1.61,0,0,0-1.43,0l-4.23,2.43C253.87,315.3,253.92,315.67,254.35,315.91Z" transform="translate(-17.33 -21.65)" style="fill:#bed4f0"/><path d="M246.75,311.62l5,2.84a1.61,1.61,0,0,0,1.43.06l4.23-2.44c.37-.21.32-.57-.11-.81l-5-2.85a1.61,1.61,0,0,0-1.43-.05l-4.23,2.43C246.27,311,246.32,311.38,246.75,311.62Z" transform="translate(-17.33 -21.65)" style="fill:#bed4f0"/><path d="M304.9,351.68l5,2.85a1.64,1.64,0,0,0,1.43.05l4.24-2.44c.36-.2.31-.57-.11-.81l-5-2.85a1.64,1.64,0,0,0-1.43-.05l-4.24,2.44C304.43,351.07,304.47,351.44,304.9,351.68Z" transform="translate(-17.33 -21.65)" style="fill:#bed4f0"/><path d="M313,356.28,326.77,364a2.53,2.53,0,0,0,2.24.08l3.49-2c.57-.33.49-.9-.18-1.28l-13.72-7.75a2.57,2.57,0,0,0-2.24-.09l-3.49,2C312.3,355.33,312.38,355.9,313,356.28Z" transform="translate(-17.33 -21.65)" style="fill:#bed4f0"/><path d="M297.3,347.39l5,2.84a1.61,1.61,0,0,0,1.43.06l4.24-2.44c.36-.21.31-.57-.12-.81l-5-2.85a1.61,1.61,0,0,0-1.43-.05l-4.24,2.43C296.82,346.78,296.87,347.15,297.3,347.39Z" transform="translate(-17.33 -21.65)" style="fill:#bed4f0"/><path d="M289.7,343.1l5,2.84a1.61,1.61,0,0,0,1.43.06l4.23-2.44c.37-.21.32-.57-.11-.81l-5-2.85a1.63,1.63,0,0,0-1.44,0l-4.23,2.43C289.22,342.49,289.27,342.86,289.7,343.1Z" transform="translate(-17.33 -21.65)" style="fill:#bed4f0"/><path d="M291.11,352.46l5.09,2.87a1.74,1.74,0,0,0,1.55.06l4.95-2.84c.4-.23.34-.63-.12-.89l-5.08-2.87a1.76,1.76,0,0,0-1.56-.06L291,351.57C290.6,351.8,290.65,352.2,291.11,352.46Z" transform="translate(-17.33 -21.65)" style="fill:#bed4f0"/><path d="M227.74,317.14l5.09,2.87a1.74,1.74,0,0,0,1.55.06l5-2.84c.39-.23.34-.63-.12-.89l-5.09-2.87a1.74,1.74,0,0,0-1.55-.06l-4.95,2.84C227.22,316.48,227.28,316.88,227.74,317.14Z" transform="translate(-17.33 -21.65)" style="fill:#bed4f0"/><path d="M219.93,312.73,225,315.6a1.74,1.74,0,0,0,1.55.06l5-2.84c.39-.23.34-.63-.12-.89l-5.09-2.87a1.74,1.74,0,0,0-1.55-.06l-4.95,2.84C219.41,312.07,219.47,312.47,219.93,312.73Z" transform="translate(-17.33 -21.65)" style="fill:#bed4f0"/><path d="M210.73,307.53l6.57,3.71a2,2,0,0,0,1.73.07l4.78-2.75c.44-.25.38-.7-.13-1l-6.57-3.71a1.93,1.93,0,0,0-1.73-.06l-4.79,2.75C210.15,306.8,210.21,307.24,210.73,307.53Z" transform="translate(-17.33 -21.65)" style="fill:#bed4f0"/><path d="M253.58,331.39,288.32,351a2,2,0,0,0,1.74.07l4.78-2.75c.44-.25.38-.7-.14-1L260,327.72a2,2,0,0,0-1.74-.07l-4.78,2.75C253,330.65,253.07,331.1,253.58,331.39Z" transform="translate(-17.33 -21.65)" style="fill:#bed4f0"/><path d="M282.1,338.81l5,2.84a1.61,1.61,0,0,0,1.43.06l4.23-2.44c.37-.21.32-.57-.11-.81l-5-2.85a1.61,1.61,0,0,0-1.43-.05L282,338C281.62,338.2,281.67,338.57,282.1,338.81Z" transform="translate(-17.33 -21.65)" style="fill:#bed4f0"/><path d="M274.5,334.51l5,2.85a1.64,1.64,0,0,0,1.43.06L285.2,335c.37-.21.32-.58-.11-.82l-5-2.84a1.61,1.61,0,0,0-1.43-.06l-4.23,2.44C274,333.91,274.07,334.28,274.5,334.51Z" transform="translate(-17.33 -21.65)" style="fill:#bed4f0"/><path d="M266.9,330.22l5,2.85a1.61,1.61,0,0,0,1.43.05l4.23-2.43c.37-.21.32-.58-.11-.82l-5-2.84A1.61,1.61,0,0,0,271,327l-4.23,2.44C266.42,329.62,266.47,330,266.9,330.22Z" transform="translate(-17.33 -21.65)" style="fill:#bed4f0"/><path d="M259.3,325.93l5,2.85a1.63,1.63,0,0,0,1.44.05L270,326.4c.37-.21.32-.58-.11-.82l-5-2.84a1.61,1.61,0,0,0-1.43-.06l-4.23,2.44C258.82,325.33,258.87,325.69,259.3,325.93Z" transform="translate(-17.33 -21.65)" style="fill:#bed4f0"/><path d="M251.7,321.64l5,2.85a1.64,1.64,0,0,0,1.43.05l4.24-2.44c.37-.2.32-.57-.11-.81l-5-2.85a1.64,1.64,0,0,0-1.43-.05l-4.24,2.44C251.22,321,251.27,321.4,251.7,321.64Z" transform="translate(-17.33 -21.65)" style="fill:#bed4f0"/><path d="M244.36,326.23l6.38,3.6a1.92,1.92,0,0,0,1.71.07l4.8-2.76c.44-.25.38-.69-.13-1l-6.37-3.6a1.94,1.94,0,0,0-1.72-.07l-4.8,2.76C243.79,325.5,243.85,325.94,244.36,326.23Z" transform="translate(-17.33 -21.65)" style="fill:#bed4f0"/><path d="M244.09,317.35l5,2.84a1.61,1.61,0,0,0,1.43.06l4.24-2.44c.36-.21.32-.57-.11-.81l-5-2.85a1.61,1.61,0,0,0-1.43,0L244,316.53C243.62,316.74,243.67,317.11,244.09,317.35Z" transform="translate(-17.33 -21.65)" style="fill:#bed4f0"/><path d="M235.8,321.77l5.27,3a1.78,1.78,0,0,0,1.57.06l4.93-2.83c.4-.23.35-.64-.12-.9l-5.27-3a1.75,1.75,0,0,0-1.57-.06l-4.93,2.83C235.28,321.1,235.33,321.5,235.8,321.77Z" transform="translate(-17.33 -21.65)" style="fill:#bed4f0"/><path d="M306.75,361.19l5.27,3a1.8,1.8,0,0,0,1.58.06l4.92-2.84c.4-.23.35-.63-.12-.89l-5.26-3a1.8,1.8,0,0,0-1.58-.06l-4.93,2.84C306.23,360.53,306.29,360.93,306.75,361.19Z" transform="translate(-17.33 -21.65)" style="fill:#bed4f0"/><path d="M236.49,313.06l5,2.84A1.61,1.61,0,0,0,243,316l4.24-2.44c.36-.21.31-.57-.11-.81l-5-2.85a1.61,1.61,0,0,0-1.43-.05l-4.24,2.43C236,312.45,236.07,312.82,236.49,313.06Z" transform="translate(-17.33 -21.65)" style="fill:#bed4f0"/><path d="M219.8,303.63l13.76,7.77a2.57,2.57,0,0,0,2.24.09l3.49-2c.57-.33.49-.9-.17-1.28l-13.76-7.76a2.5,2.5,0,0,0-2.24-.09l-3.49,2C219.06,302.68,219.14,303.26,219.8,303.63Z" transform="translate(-17.33 -21.65)" style="fill:#bed4f0"/><path d="M239.15,307.33l5,2.84a1.61,1.61,0,0,0,1.43.06l4.23-2.44c.37-.21.32-.57-.11-.81l-5-2.85a1.64,1.64,0,0,0-1.43-.06L239,306.51C238.67,306.72,238.72,307.09,239.15,307.33Z" transform="translate(-17.33 -21.65)" style="fill:#bed4f0"/><path d="M226.06,299.94l10.48,5.91a2.24,2.24,0,0,0,2,.08l3.73-2.14c.5-.29.43-.8-.15-1.13l-10.48-5.92a2.23,2.23,0,0,0-2-.07l-3.73,2.14C225.4,299.1,225.47,299.61,226.06,299.94Z" transform="translate(-17.33 -21.65)" style="fill:#bed4f0"/><path d="M239.71,300.41l5,2.85a1.64,1.64,0,0,0,1.43.06l4.24-2.44c.36-.21.31-.58-.12-.82l-5-2.84a1.61,1.61,0,0,0-1.43-.06l-4.24,2.44C239.23,299.81,239.28,300.18,239.71,300.41Z" transform="translate(-17.33 -21.65)" style="fill:#bed4f0"/><path d="M232.11,296.12l5,2.85a1.61,1.61,0,0,0,1.43,0l4.24-2.43c.36-.21.31-.58-.12-.82l-5-2.84a1.63,1.63,0,0,0-1.44-.06L232,295.31C231.63,295.52,231.68,295.88,232.11,296.12Z" transform="translate(-17.33 -21.65)" style="fill:#bed4f0"/><path d="M314.55,365.59l5.16,2.92a1.62,1.62,0,0,0,1.42.06l1.88-1.09c.36-.21.31-.57-.11-.8l-5.16-2.92a1.62,1.62,0,0,0-1.42-.06l-1.88,1.09C314.08,365,314.13,365.36,314.55,365.59Z" transform="translate(-17.33 -21.65)" style="fill:#bed4f0"/><path d="M299,356.82l5.17,2.92a1.6,1.6,0,0,0,1.41.05l1.89-1.08c.36-.21.31-.57-.11-.81L302.2,355a1.57,1.57,0,0,0-1.41-.06L298.9,356C298.54,356.22,298.59,356.58,299,356.82Z" transform="translate(-17.33 -21.65)" style="fill:#bed4f0"/><path d="M215.71,345.16,254.2,366.9a3.89,3.89,0,0,0,3.43.13L280.35,354c.87-.5.75-1.38-.27-2l-38.49-21.74a3.89,3.89,0,0,0-3.43-.13l-22.72,13.06C214.57,343.71,214.69,344.59,215.71,345.16Z" transform="translate(-17.33 -21.65)" style="fill:#bed4f0"/><path d="M372.22,349.29,244.49,276.38c-3.77-2.15-6.84-7-6.84-10.75V186.84c0-3.76,3.07-5.08,6.84-2.93l127.73,72.91c3.76,2.15,6.84,7,6.84,10.75v78.79C379.06,350.12,376,351.44,372.22,349.29Z" transform="translate(-17.33 -21.65)" style="fill:#84a9d8"/><polygon points="226.71 171.63 226.56 171.54 226.56 249.03 355.01 322.36 355.49 322.63 355.49 245.14 226.71 171.63" style="fill:#fff"/></g><g id="row8_screen"><polygon points="247.35 257.46 229.75 247.14 229.75 244.86 247.36 255.18 247.35 257.46" style="fill:#2d3969"/><polygon points="289.95 282.43 282.39 278 282.39 275.71 289.95 280.14 289.95 282.43" style="fill:#2d3969"/><polygon points="351.4 318.45 314.49 296.81 314.49 294.53 351.4 316.16 351.4 318.45" style="fill:#60eacb"/><polygon points="311.86 295.27 291.93 283.59 291.93 281.3 311.86 292.99 311.86 295.27" style="fill:#7299e9"/><polygon points="279.81 276.49 249.56 258.75 249.56 256.47 279.82 274.2 279.81 276.49" style="fill:#4e6bff"/></g><g id="row7_screen"><polygon points="276.71 264.91 229.75 237.39 229.75 235.1 276.71 262.63 276.71 264.91" style="fill:#7299e9"/><polygon points="319.31 289.88 297.07 276.85 297.07 274.56 319.31 287.59 319.31 289.88" style="fill:#f9b851"/><polygon points="351.41 308.69 329.17 295.66 329.17 293.38 351.41 306.41 351.41 308.69" style="fill:#283e6b"/><polygon points="326.54 294.12 321.29 291.04 321.29 288.75 326.55 291.83 326.54 294.12" style="fill:#7299e9"/><polygon points="294.5 275.34 278.91 266.2 278.91 263.92 294.5 273.05 294.5 275.34" style="fill:#a09cae"/></g><g id="two-end"><polygon points="351.41 298.94 314.51 277.31 314.51 275.02 351.42 296.65 351.41 298.94" style="fill:#ff97ae"/><polygon points="311.88 275.77 291.94 264.08 291.95 261.8 311.88 273.48 311.88 275.77" style="fill:#60eacb"/></g><g id="three-front"><polygon points="247.37 237.96 229.76 227.64 229.76 225.35 247.37 235.67 247.37 237.96" style="fill:#ff97ae"/><polygon points="289.96 262.92 282.4 258.49 282.41 256.21 289.97 260.64 289.96 262.92" style="fill:#4e6bff"/><polygon points="279.83 256.98 249.57 239.25 249.57 236.96 279.83 254.7 279.83 256.98" style="fill:#1f8ceb"/></g><g id="row5_screen"><polygon points="261.87 236.7 284.1 249.73 284.11 247.44 261.87 234.41 261.87 236.7" style="fill:#f9b851"/><polygon points="229.77 217.88 252 230.92 252 228.63 229.77 215.6 229.77 217.88" style="fill:#283e6b"/><polygon points="289.53 252.75 311.77 265.78 311.77 263.49 289.54 250.46 289.53 252.75" style="fill:#2d3969"/><polygon points="318.05 269.65 340.29 282.69 340.29 280.4 318.06 267.37 318.05 269.65" style="fill:#1f8ceb"/><polygon points="254.63 232.46 259.89 235.54 259.89 233.25 254.63 230.17 254.63 232.46" style="fill:#7299e9"/></g><g id="row4_screen"><polygon points="229.78 208.13 260.04 225.87 260.04 223.58 229.78 205.85 229.78 208.13" style="fill:#4e6bff"/><polygon points="276.41 235.46 306.67 253.2 306.67 250.91 276.41 233.18 276.41 235.46" style="fill:#4e6bff"/><polygon points="317.08 259.3 347.34 277.04 347.34 274.75 317.08 257.01 317.08 259.3" style="fill:#60eacb"/></g><g id="row3_1stwo"><polygon points="247.4 208.7 229.79 198.38 229.79 196.09 247.4 206.41 247.4 208.7" style="fill:#ff97ae"/><polygon points="276.13 225.54 258.52 215.22 258.53 212.94 276.14 223.26 276.13 225.54" style="fill:#60eacb"/></g><g id="row2-lasttwo"><polygon points="346.55 266.82 316.29 249.08 316.29 246.79 346.55 264.53 346.55 266.82" style="fill:#7299e9"/><polygon points="280.71 229.03 310.97 246.77 310.97 244.48 280.71 226.74 280.71 229.03" style="fill:#ff97ae"/></g><g id="row2_screen"><polygon points="247.4 198.95 229.79 188.63 229.79 186.34 247.41 196.66 247.4 198.95" style="fill:#60eacb"/><polygon points="290 223.91 282.44 219.48 282.44 217.19 290 221.63 290 223.91" style="fill:#ff97ae"/><polygon points="351.45 259.93 314.54 238.29 314.54 236.01 351.45 257.64 351.45 259.93" style="fill:#4e6bff"/><polygon points="311.91 236.75 291.98 225.07 291.98 222.78 311.91 234.47 311.91 236.75" style="fill:#f9b851"/><polygon points="279.86 217.97 249.6 200.24 249.61 197.95 279.87 215.69 279.86 217.97" style="fill:#4e6bff"/></g><g id="row1_screen"><polygon points="276.76 206.4 229.8 178.87 229.8 176.59 276.76 204.11 276.76 206.4" style="fill:#2d3969"/><polygon points="319.36 231.36 297.12 218.33 297.12 216.04 319.36 229.07 319.36 231.36" style="fill:#1f8ceb"/><polygon points="351.45 250.18 329.22 237.14 329.22 234.86 351.46 247.89 351.45 250.18" style="fill:#f9b851"/><polygon points="326.59 235.6 321.33 232.52 321.33 230.23 326.6 233.32 326.59 235.6" style="fill:#7299e9"/><polygon points="294.55 216.82 278.96 207.69 278.96 205.4 294.55 214.53 294.55 216.82" style="fill:#a09cae"/></g></g></svg>